<?xml version="1.0" encoding="utf-8"?>
<!-- Generator: Adobe Illustrator 27.9.0, SVG Export Plug-In . SVG Version: 6.00 Build 0)  -->
<svg version="1.1"
	 id="svg5" xmlns:svg="http://www.w3.org/2000/svg" xmlns:inkscape="http://www.inkscape.org/namespaces/inkscape" xmlns:sodipodi="http://sodipodi.sourceforge.net/DTD/sodipodi-0.dtd"
	 xmlns="http://www.w3.org/2000/svg" xmlns:xlink="http://www.w3.org/1999/xlink" x="0px" y="0px" viewBox="0 0 446.1 512.6"
	 style="enable-background:new 0 0 446.1 512.6;" xml:space="preserve">
<style type="text/css">
	.st0{fill:none;stroke:#FFFFFF;stroke-width:17;stroke-linecap:round;stroke-linejoin:bevel;stroke-miterlimit:11.3386;}
	.st1{fill:none;stroke:#FFFFFF;stroke-width:30;stroke-linecap:round;stroke-linejoin:bevel;stroke-miterlimit:11.3386;}
	.st2{fill:#FFFFFF;stroke:#FFFFFF;stroke-width:26;stroke-linecap:round;stroke-linejoin:bevel;stroke-miterlimit:11.3386;}
	.st3{fill:#FFFFFF;stroke:#FFFFFF;stroke-width:15;stroke-linecap:round;stroke-miterlimit:11.3386;}
	.st4{fill:none;stroke:#FFFFFF;stroke-width:16;stroke-linecap:round;stroke-miterlimit:11.3386;}
	.st5{fill:none;stroke:#FFFFFF;stroke-width:10;stroke-linecap:round;stroke-linejoin:bevel;stroke-miterlimit:11.3386;}
	.st6{fill:#FFFFFF;}
	.st7{fill:#FFFFFF;stroke:#FFFFFF;stroke-width:0.25;stroke-miterlimit:10;}
</style>
<sodipodi:namedview  bordercolor="#000000" borderopacity="0.25" id="namedview7" inkscape:current-layer="layer1" inkscape:cx="690.59774" inkscape:cy="383.30218" inkscape:deskcolor="#d1d1d1" inkscape:document-units="mm" inkscape:pagecheckerboard="0" inkscape:pageopacity="0.0" inkscape:showpageshadow="2" inkscape:window-height="1029" inkscape:window-maximized="1" inkscape:window-width="1920" inkscape:window-x="0" inkscape:window-y="0" inkscape:zoom="1.2235777" pagecolor="#ffffff" showgrid="false">
	</sodipodi:namedview>
<defs>
	
		<inkscape:path-effect  apply_no_weight="true" apply_with_weight="true" effect="bspline" helper_size="0" id="path-effect1400" is_visible="true" lpeversion="1" only_selected="false" steps="2" weight="33.333333">
		</inkscape:path-effect>
	
		<inkscape:path-effect  apply_no_weight="true" apply_with_weight="true" effect="bspline" helper_size="0" id="path-effect1370" is_visible="true" lpeversion="1" only_selected="false" steps="2" weight="33.333333">
		</inkscape:path-effect>
	
		<inkscape:path-effect  apply_no_weight="true" apply_with_weight="true" effect="bspline" helper_size="0" id="path-effect1366" is_visible="true" lpeversion="1" only_selected="false" steps="2" weight="33.333333">
		</inkscape:path-effect>
	
		<inkscape:path-effect  apply_no_weight="true" apply_with_weight="true" effect="bspline" helper_size="0" id="path-effect1362" is_visible="true" lpeversion="1" only_selected="false" steps="2" weight="33.333333">
		</inkscape:path-effect>
	
		<inkscape:path-effect  apply_no_weight="true" apply_with_weight="true" effect="bspline" helper_size="0" id="path-effect993" is_visible="true" lpeversion="1" only_selected="false" steps="2" weight="33.333333">
		</inkscape:path-effect>
	
		<inkscape:path-effect  apply_no_weight="true" apply_with_weight="true" effect="bspline" helper_size="0" id="path-effect963" is_visible="true" lpeversion="1" only_selected="false" steps="2" weight="33.333333">
		</inkscape:path-effect>
	
		<inkscape:path-effect  apply_no_weight="true" apply_with_weight="true" effect="bspline" helper_size="0" id="path-effect933" is_visible="true" lpeversion="1" only_selected="false" steps="2" weight="33.333333">
		</inkscape:path-effect>
	
		<inkscape:path-effect  apply_no_weight="true" apply_with_weight="true" effect="bspline" helper_size="0" id="path-effect933-3" is_visible="true" lpeversion="1" only_selected="false" steps="2" weight="33.333333">
		</inkscape:path-effect>
	
		<inkscape:path-effect  apply_no_weight="true" apply_with_weight="true" effect="bspline" helper_size="0" id="path-effect963-7" is_visible="true" lpeversion="1" only_selected="false" steps="2" weight="33.333333">
		</inkscape:path-effect>
	
		<inkscape:path-effect  apply_no_weight="true" apply_with_weight="true" effect="bspline" helper_size="0" id="path-effect993-3" is_visible="true" lpeversion="1" only_selected="false" steps="2" weight="33.333333">
		</inkscape:path-effect>
	
		<inkscape:path-effect  apply_no_weight="true" apply_with_weight="true" effect="bspline" helper_size="0" id="path-effect933-6" is_visible="true" lpeversion="1" only_selected="false" steps="2" weight="33.333333">
		</inkscape:path-effect>
	
		<inkscape:path-effect  apply_no_weight="true" apply_with_weight="true" effect="bspline" helper_size="0" id="path-effect963-2" is_visible="true" lpeversion="1" only_selected="false" steps="2" weight="33.333333">
		</inkscape:path-effect>
	
		<inkscape:path-effect  apply_no_weight="true" apply_with_weight="true" effect="bspline" helper_size="0" id="path-effect993-9" is_visible="true" lpeversion="1" only_selected="false" steps="2" weight="33.333333">
		</inkscape:path-effect>
	
		<inkscape:path-effect  apply_no_weight="true" apply_with_weight="true" effect="bspline" helper_size="0" id="path-effect933-3-0" is_visible="true" lpeversion="1" only_selected="false" steps="2" weight="33.333333">
		</inkscape:path-effect>
	
		<inkscape:path-effect  apply_no_weight="true" apply_with_weight="true" effect="bspline" helper_size="0" id="path-effect963-7-9" is_visible="true" lpeversion="1" only_selected="false" steps="2" weight="33.333333">
		</inkscape:path-effect>
	
		<inkscape:path-effect  apply_no_weight="true" apply_with_weight="true" effect="bspline" helper_size="0" id="path-effect993-3-3" is_visible="true" lpeversion="1" only_selected="false" steps="2" weight="33.333333">
		</inkscape:path-effect>
	
		<inkscape:path-effect  apply_no_weight="true" apply_with_weight="true" effect="bspline" helper_size="0" id="path-effect933-6-2" is_visible="true" lpeversion="1" only_selected="false" steps="2" weight="33.333333">
		</inkscape:path-effect>
	
		<inkscape:path-effect  apply_no_weight="true" apply_with_weight="true" effect="bspline" helper_size="0" id="path-effect963-2-6" is_visible="true" lpeversion="1" only_selected="false" steps="2" weight="33.333333">
		</inkscape:path-effect>
	
		<inkscape:path-effect  apply_no_weight="true" apply_with_weight="true" effect="bspline" helper_size="0" id="path-effect993-9-1" is_visible="true" lpeversion="1" only_selected="false" steps="2" weight="33.333333">
		</inkscape:path-effect>
	
		<inkscape:path-effect  apply_no_weight="true" apply_with_weight="true" effect="bspline" helper_size="0" id="path-effect1370-2" is_visible="true" lpeversion="1" only_selected="false" steps="2" weight="33.333333">
		</inkscape:path-effect>
	
		<inkscape:path-effect  apply_no_weight="true" apply_with_weight="true" effect="bspline" helper_size="0" id="path-effect1400-2" is_visible="true" lpeversion="1" only_selected="false" steps="2" weight="33.333333">
		</inkscape:path-effect>
</defs>
<path id="path931-1" inkscape:original-d="m 119.65196,90.843185 c -0.28516,-0.909447 -0.57058,-1.819174 -0.85626,-2.729175 -0.0473,-1.239377 -0.0949,-2.478983 -0.14271,-3.718885" inkscape:path-effect="#path-effect933-6" class="st0" d="
	M48.2,412.3c-7.2-23-14.4-45.9-18.6-73.1s-5.4-65.6-6.6-96.9"/>
<path id="path961-2" inkscape:original-d="m 118.67924,83.679369 c 0.069,-0.936493 0.13763,-1.87325 0.20605,-2.810272 0.64737,-1.094827 1.29444,-2.189874 1.94126,-3.285209 1.18247,-0.684168 2.36462,-1.368571 3.54654,-2.053254 0.70336,2.64e-4 1.40643,2.64e-4 2.10925,0" inkscape:path-effect="#path-effect963-2" class="st1" d="
	M23.7,231.5c1.7-23.6,3.5-47.3,12.5-72.9s25.4-53.3,48.5-75.8s52.9-39.7,76.7-48.4c23.8-8.6,41.5-8.6,59.3-8.6"/>
<path id="path991-7" inkscape:original-d="m 121.4923,84.893497 c -0.22574,0.4146 -0.45174,0.828937 -0.678,1.243007 -0.0814,0.358109 -0.16296,0.715936 -0.24484,1.073507 0.0756,0.471112 0.15093,0.941938 0.226,1.41251 0.11955,0.408332 0.23882,0.816383 0.35784,1.224174 0.19488,0.364387 0.38949,0.728494 0.58383,1.09234 0.13838,0.0819 0.27649,0.16349 0.41434,0.24484 0.22627,2.6e-4 0.45227,2.6e-4 0.67801,0 0.15407,-0.15355 0.30787,-0.30735 0.46142,-0.46142 -0.1096,-0.869232 -0.21946,-1.738695 -0.32959,-2.608436 -0.14413,-1.02932 -0.28851,-2.058861 -0.43317,-3.088688 -0.10018,-0.08135 -0.20063,-0.162957 -0.30133,-0.244835 -0.24458,0.03793 -0.48941,0.0756 -0.73451,0.113001 z" inkscape:path-effect="#path-effect993-9" class="st2" d="
	M89.8,266.9c-5.9,5.7-11.7,16.2-15.5,25.9c-3.9,9.7-5.9,18.8-6,29.2c-0.1,10.5,1.8,22.3,4.3,33.4s5.5,21.4,9.4,31.1
	c4,9.7,8.9,18.9,13.1,24.6c4.2,5.6,7.7,7.7,12.3,8.7s10.3,1,15.1-0.9s8.7-5.8,9.2-18.7c0.6-12.9-2.2-34.9-5.4-58.8
	c-3.2-24-6.9-50-9.9-64c-3.1-14-5.6-16.1-10-16.6C102,260.2,95.8,261.2,89.8,266.9L89.8,266.9z"/>
<path id="path931-1-8" inkscape:original-d="m 133.49881,90.838281 c 0.28516,-0.909447 0.57058,-1.819174 0.85626,-2.729175 0.0473,-1.239377 0.0949,-2.478983 0.14271,-3.718885" inkscape:path-effect="#path-effect933-6-2" class="st0" d="
	M397.8,412.2c7.2-23,14.4-45.9,18.6-73.1c4.2-27.1,5.4-65.5,6.6-96.8"/>
<path id="path961-2-7" inkscape:original-d="m 134.47153,83.674465 c -0.069,-0.936493 -0.13763,-1.87325 -0.20605,-2.810272 -0.64737,-1.094827 -1.29444,-2.189874 -1.94126,-3.285209 -1.18247,-0.684168 -2.36462,-1.368571 -3.54654,-2.053254 -0.70336,2.64e-4 -1.40643,2.64e-4 -2.10925,0" inkscape:path-effect="#path-effect963-2-6" class="st1" d="
	M422.3,231.5c-1.7-23.6-3.5-47.3-12.5-72.9s-25.4-53.3-48.5-75.8s-52.9-39.7-76.7-48.4s-41.5-8.6-59.2-8.6"/>
<path id="path991-7-9" inkscape:original-d="m 131.65847,84.888593 c 0.22574,0.4146 0.45174,0.828937 0.678,1.243007 0.0814,0.358109 0.16296,0.715936 0.24484,1.073507 -0.0756,0.471112 -0.15093,0.941938 -0.226,1.41251 -0.11955,0.408332 -0.23882,0.816383 -0.35784,1.224174 -0.19488,0.364387 -0.38949,0.728494 -0.58383,1.09234 -0.13838,0.0819 -0.27649,0.16349 -0.41434,0.24484 -0.22627,2.6e-4 -0.45227,2.6e-4 -0.67801,0 -0.15407,-0.15355 -0.30787,-0.30735 -0.46142,-0.46142 0.1096,-0.869232 0.21946,-1.738695 0.32959,-2.608436 0.14413,-1.02932 0.28851,-2.058861 0.43317,-3.088688 0.10018,-0.08135 0.20063,-0.162957 0.30133,-0.244835 0.24458,0.03793 0.48941,0.0756 0.73451,0.113001 z" inkscape:path-effect="#path-effect993-9-1" class="st2" d="
	M355.4,266.7c5.9,5.7,11.7,16.2,15.5,25.9c3.9,9.7,5.9,18.8,6,29.2c0.1,10.5-1.8,22.3-4.3,33.4s-5.5,21.4-9.4,31.1
	c-4,9.7-8.9,18.9-13.1,24.6s-7.7,7.7-12.3,8.7c-4.6,1-10.3,1-15.1-0.9c-4.8-1.9-8.7-5.8-9.2-18.7c-0.6-12.9,2.2-34.9,5.4-58.8
	c3.2-24,6.9-50,9.9-64c3.1-14,5.6-16.1,10-16.6C343.3,260.1,349.4,261,355.4,266.7L355.4,266.7z"/>
<g id="g1430" transform="matrix(0.84423392,0,0,0.87675322,19.69182,14.154194)">
</g>
<path id="rect1595" class="st3" d="M223,158.2L223,158.2c21.6,0,39.1,22.7,39.1,50.6v84c0,27.9-17.5,50.6-39.1,50.6l0,0
	c-21.6,0-39.1-22.7-39.1-50.6v-84C184.1,180.8,201.5,158.2,223,158.2z"/>
<path id="path1709" sodipodi:arc-type="arc" sodipodi:cx="126.55654" sodipodi:cy="88.497726" sodipodi:end="3.1596839" sodipodi:open="true" sodipodi:rx="2.3008761" sodipodi:ry="2.1796138" sodipodi:start="0" sodipodi:type="arc" class="st4" d="
	M289,303c0,25.3-12.7,48.5-33.3,61c-20.6,12.5-45.9,12.3-66.3-0.6s-32.7-36.4-32.2-61.6"/>
<path class="st5" d="M223.9,424.8c0,15-6.4,28.8-14.4,36.4c-25.9,24.8-64.9,19.3-71.8,18.2c-59.8-9-86.9-60.8-89.4-67.2"/>
<path class="st6" d="M208.5,387.7c9.5,5.4,21.2,5.3,30.8-0.2h0l-0.1,8.8c0,5.5-3,10.5-7.8,13.3c-4.8,2.8-10.7,2.8-15.4,0.1
	c-4.7-2.7-7.6-7.7-7.6-13.2L208.5,387.7L208.5,387.7z"/>
<path class="st7" d="M208.6,415.7v-2.5c0-8.5,6.9-15.3,15.3-15.3h0c8.5,0,15.3,6.9,15.3,15.3v2.5c0,8.5-6.9,15.3-15.3,15.3h0
	C215.5,431,208.6,424.1,208.6,415.7z"/>
<rect x="208.6" y="392.6" class="st7" width="30.6" height="23.3"/>
</svg>
